<svg width="795.1011230468749px" height="333.2px" xmlns="http://www.w3.org/2000/svg" viewBox="-147.55056152343747 -91.6 795.1011230468749 333.2" style="background: rgba(249, 249, 249, 0);" preserveAspectRatio="xMidYMid"><defs><filter id="editing-vr"><feFlood flood-color="#ff00e6" flood-opacity="0.7" result="c1"></feFlood><feFlood flood-color="#0000ff" flood-opacity="0.7" result="c3"></feFlood><feComposite operator="in" in="c1" in2="SourceAlpha" result="text-c1"></feComposite><feComposite operator="in" in="c3" in2="SourceAlpha" result="text-c3"></feComposite><feOffset in="text-c1" dx="5" dy="-1" result="text1"></feOffset><feOffset in="text-c3" dx="-5" dy="1" result="text3"></feOffset><feBlend in="SourceGraphic" in2="text1" mode="multiply" result="text4"></feBlend><feBlend in="text4" in2="text3" mode="multiply"></feBlend></filter></defs><g filter="url(#editing-vr)"><g transform="translate(-8.940282821655273, 141.97499465942383)"><path d="M77.78-110.26L77.78-110.26L77.78-110.26Q72.27-105.94 64.44-93.05L64.44-93.05L64.44-93.05Q56.62-80.16 47.16-61.54L47.16-61.54L47.16-61.54Q37.70-42.91 37.40-42.32L37.40-42.32L37.40-42.32Q36.36-40.53 33.67-35.46L33.67-35.46L33.67-35.46Q30.99-30.40 29.43-27.49L29.43-27.49L29.43-27.49Q27.86-24.58 24.81-19.59L24.81-19.59L24.81-19.59Q21.75-14.60 19.37-11.47L19.37-11.47L19.37-11.47Q16.99-8.34 13.56-4.54L13.56-4.54L13.56-4.54Q10.13-0.74 6.93 1.42L6.93 1.42L6.93 1.42Q3.72 3.58-0.30 5.07L-0.30 5.07L-0.30 5.07Q-4.32 6.56-8.34 6.56L-8.34 6.56L-8.34 6.56Q-11.77 6.56-11.77 5.21L-11.77 5.21L-11.77 5.21Q-11.77 4.77-11.32 4.32L-11.32 4.32L-11.32 4.32Q-10.88 3.87-10.43 3.58L-10.43 3.58L-9.98 3.43L-9.98 3.43Q-3.58-0.60 5.81-13.86L5.81-13.86L5.81-13.86Q15.20-27.12 21.46-38.44L21.46-38.44L27.56-49.62L27.56-49.62Q34.42-62.73 41.05-73.68L41.05-73.68L41.05-73.68Q47.68-84.63 52.22-90.74L52.22-90.74L52.22-90.74Q56.77-96.85 60.27-101.10L60.27-101.10L60.27-101.10Q63.77-105.34 65.56-106.83L65.56-106.83L67.20-108.32L67.20-108.32Q67.65-108.77 67.65-109.22L67.65-109.22L67.65-109.22Q67.65-110.56 63.18-110.56L63.18-110.56L63.18-110.56Q58.41-110.56 53.94-108.17L53.94-108.17L53.94-108.17Q49.47-105.79 46.41-102.36L46.41-102.36L46.41-102.36Q43.36-98.94 40.98-95.43L40.98-95.43L40.98-95.43Q38.59-91.93 37.55-89.55L37.55-89.55L36.36-87.16L36.36-87.16Q35.76-84.78 34.72-84.78L34.72-84.78L34.72-84.78Q32.18-84.78 32.18-91.34L32.18-91.34L32.18-91.34Q32.18-99.38 37.47-104.90L37.47-104.90L37.47-104.90Q42.76-110.41 50.14-112.57L50.14-112.57L50.14-112.57Q57.51-114.73 66.16-114.73L66.16-114.73L66.16-114.73Q71.37-114.73 77.63-113.84L77.63-113.84L77.63-113.84Q79.42-113.54 79.42-112.49L79.42-112.49L79.42-112.49Q79.42-111.45 77.78-110.26ZM189.38-110.56L189.38-110.56L189.38-110.56Q181.63-99.38 172.09-82.25L172.09-82.25L172.09-82.25Q162.56-65.11 156.90-53.49L156.90-53.49L151.24-41.87L151.24-41.87Q135.89-9.98 135.89 3.87L135.89 3.87L135.89 3.87Q135.89 4.17 135.96 5.07L135.96 5.07L135.96 5.07Q136.04 5.96 136.04 6.56L136.04 6.56L136.04 6.56Q136.04 8.94 134.70 8.94L134.70 8.94L134.70 8.94Q132.16 8.94 129.18 4.54L129.18 4.54L129.18 4.54Q126.20 0.15 126.20-7.15L126.20-7.15L126.20-7.15Q126.20-13.86 129.41-23.54L129.41-23.54L129.41-23.54Q132.61-33.23 138.87-45.67L138.87-45.67L138.87-45.67Q145.13-58.11 149.37-65.71L149.37-65.71L149.37-65.71Q153.62-73.31 160.62-85.53L160.62-85.53L160.62-85.53Q161.07-86.42 161.07-86.87L161.07-86.87L161.07-86.87Q160.77-87.61 160.32-87.61L160.32-87.61L160.32-87.61Q159.43-87.61 158.54-86.87L158.54-86.87L158.54-86.87Q149.75-79.72 135.44-62.58L135.44-62.58L135.44-62.58Q121.14-45.45 111.30-31.89L111.30-31.89L101.32-18.33L101.32-18.33Q98.94-14.75 97.45-14.75L97.45-14.75L97.45-14.75Q97.00-14.75 96.70-15.05L96.70-15.05L96.70-15.05Q96.40-15.35 96.25-15.87L96.25-15.87L96.25-15.87Q96.10-16.39 96.03-16.84L96.03-16.84L96.03-16.84Q95.96-17.28 95.96-17.58L95.96-17.58L95.96-17.88L95.96-17.88Q97.00-27.12 99.01-43.66L99.01-43.66L99.01-43.66Q101.02-60.20 102.36-71.52L102.36-71.52L102.36-71.52Q103.70-82.84 103.70-83.14L103.70-83.14L103.70-83.14Q103.70-84.63 103.11-84.63L103.11-84.63L103.11-84.63Q102.81-84.63 102.29-84.19L102.29-84.19L102.29-84.19Q101.77-83.74 101.47-83.29L101.47-83.29L101.17-82.84L101.17-82.84Q94.76-73.31 87.46-58.18L87.46-58.18L87.46-58.18Q80.16-43.06 75.69-31.44L75.69-31.44L75.69-31.44Q72.41-23.09 68.99-16.17L68.99-16.17L68.99-16.17Q65.56-9.24 62.95-5.44L62.95-5.44L62.95-5.44Q60.34-1.64 58.18 0.97L58.18 0.97L58.18 0.97Q56.02 3.58 54.83 4.47L54.83 4.47L53.64 5.36L53.64 5.36Q52.00 6.71 51.11 6.71L51.11 6.71L51.11 6.71Q50.21 6.71 50.21 5.21L50.21 5.21L50.36 3.87L50.36 3.87Q51.85-4.02 63.40-26.22L63.40-26.22L63.40-26.22Q74.95-48.42 85.82-66.75L85.82-66.75L96.70-84.93L104.90-99.08L104.90-99.08Q111.00-116.52 114.28-116.52L114.28-116.52L114.28-116.52Q116.52-116.52 116.52-108.92L116.52-108.92L116.52-108.92Q111.90-53.49 111.90-45.59L111.90-45.59L111.90-45.59Q111.90-43.36 112.79-43.36L112.79-43.36L112.79-43.36Q113.69-43.36 114.88-45.00L114.88-45.00L114.88-45.00Q116.82-47.53 120.24-51.85L120.24-51.85L120.24-51.85Q123.67-56.17 133.36-67.35L133.36-67.35L133.36-67.35Q143.04-78.52 151.61-87.46L151.61-87.46L151.61-87.46Q160.18-96.40 170.31-104.60L170.31-104.60L170.31-104.60Q180.44-112.79 187.00-114.58L187.00-114.58L187.00-114.58Q188.49-114.88 188.93-114.88L188.93-114.88L188.93-114.88Q190.72-114.88 190.72-113.54L190.72-113.54L190.72-113.54Q190.72-112.35 189.38-110.56ZM227.67-110.26L227.67-110.26L227.67-110.26Q222.16-105.94 214.34-93.05L214.34-93.05L214.34-93.05Q206.51-80.16 197.05-61.54L197.05-61.54L197.05-61.54Q187.59-42.91 187.29-42.32L187.29-42.32L187.29-42.32Q186.25-40.53 183.57-35.46L183.57-35.46L183.57-35.46Q180.89-30.40 179.32-27.49L179.32-27.49L179.32-27.49Q177.76-24.58 174.70-19.59L174.70-19.59L174.70-19.59Q171.65-14.60 169.26-11.47L169.26-11.47L169.26-11.47Q166.88-8.34 163.45-4.54L163.45-4.54L163.45-4.54Q160.03-0.74 156.82 1.42L156.82 1.42L156.82 1.42Q153.62 3.58 149.60 5.07L149.60 5.07L149.60 5.07Q145.57 6.56 141.55 6.56L141.55 6.56L141.55 6.56Q138.12 6.56 138.12 5.21L138.12 5.21L138.12 5.21Q138.12 4.77 138.57 4.32L138.57 4.32L138.57 4.32Q139.02 3.87 139.46 3.58L139.46 3.58L139.91 3.43L139.91 3.43Q146.32-0.60 155.71-13.86L155.71-13.86L155.71-13.86Q165.09-27.12 171.35-38.44L171.35-38.44L177.46-49.62L177.46-49.62Q184.31-62.73 190.94-73.68L190.94-73.68L190.94-73.68Q197.57-84.63 202.12-90.74L202.12-90.74L202.12-90.74Q206.66-96.85 210.16-101.10L210.16-101.10L210.16-101.10Q213.67-105.34 215.45-106.83L215.45-106.83L217.09-108.32L217.09-108.32Q217.54-108.77 217.54-109.22L217.54-109.22L217.54-109.22Q217.54-110.56 213.07-110.56L213.07-110.56L213.07-110.56Q208.30-110.56 203.83-108.17L203.83-108.17L203.83-108.17Q199.36-105.79 196.31-102.36L196.31-102.36L196.31-102.36Q193.25-98.94 190.87-95.43L190.87-95.43L190.87-95.43Q188.49-91.93 187.44-89.55L187.44-89.55L186.25-87.16L186.25-87.16Q185.65-84.78 184.61-84.78L184.61-84.78L184.61-84.78Q182.08-84.78 182.08-91.34L182.08-91.34L182.08-91.34Q182.08-99.38 187.37-104.90L187.37-104.90L187.37-104.90Q192.66-110.41 200.03-112.57L200.03-112.57L200.03-112.57Q207.41-114.73 216.05-114.73L216.05-114.73L216.05-114.73Q221.26-114.73 227.52-113.84L227.52-113.84L227.52-113.84Q229.31-113.54 229.31-112.49L229.31-112.49L229.31-112.49Q229.31-111.45 227.67-110.26ZM178.65-10.28L178.65-10.28L178.65-10.28Q181.04-16.24 185.43-24.14L185.43-24.14L185.43-24.14Q189.83-32.03 193.10-36.95L193.10-36.95L196.38-41.72L196.38-41.72Q198.47-44.70 200.55-44.70L200.55-44.70L200.55-44.70Q202.19-44.70 202.19-43.06L202.19-43.06L201.75-41.57L201.75-41.57Q196.38-28.01 196.38-18.18L196.38-18.18L196.38-18.18Q196.38-10.28 199.88-5.29L199.88-5.29L199.88-5.29Q203.39-0.30 210.84-0.30L210.84-0.30L210.84-0.30Q222.01-0.30 228.86-10.06L228.86-10.06L228.86-10.06Q235.72-19.82 235.72-31.14L235.72-31.14L235.72-31.14Q235.72-40.83 229.09-58.78L229.09-58.78L229.09-58.78Q222.46-76.73 222.46-83.14L222.46-83.14L222.46-83.14Q222.46-97.00 234.30-105.42L234.30-105.42L234.30-105.42Q246.15-113.84 260.30-113.84L260.30-113.84L260.30-113.84Q262.84-113.84 265.29-113.54L265.29-113.54L265.29-113.54Q267.75-113.24 270.73-112.57L270.73-112.57L270.73-112.57Q273.71-111.90 275.50-110.41L275.50-110.41L275.50-110.41Q277.29-108.92 277.29-106.68L277.29-106.68L277.29-106.68Q277.29-103.70 273.12-96.55L273.12-96.55L273.12-96.55Q268.94-89.40 266.11-85.67L266.11-85.67L266.11-85.67Q265.07-84.93 264.33-84.93L264.33-84.93L264.33-84.93Q263.28-84.93 263.28-86.72L263.28-86.72L263.28-86.72Q263.28-90.89 264.18-98.04L264.18-98.04L264.18-98.04Q264.18-109.66 255.24-109.66L255.24-109.66L255.24-109.66Q247.64-109.66 242.35-104.45L242.35-104.45L242.35-104.45Q237.06-99.23 237.06-91.78L237.06-91.78L237.06-91.78Q237.06-81.95 243.99-64.37L243.99-64.37L243.99-64.37Q250.92-46.79 250.92-37.25L250.92-37.25L250.92-37.25Q250.92-19.37 236.84-7.82L236.84-7.82L236.84-7.82Q222.75 3.72 205.17 3.72L205.17 3.72L205.17 3.72Q202.19 3.72 198.02 3.13L198.02 3.13L198.02 3.13Q193.85 2.53 189.23 1.27L189.23 1.27L189.23 1.27Q184.61 0 181.41-2.46L181.41-2.46L181.41-2.46Q178.20-4.92 178.20-8.05L178.20-8.05L178.20-8.05Q178.20-9.24 178.65-10.28ZM245.25-10.28L245.25-10.28L245.25-10.28Q247.64-16.24 252.03-24.14L252.03-24.14L252.03-24.14Q256.43-32.03 259.71-36.95L259.71-36.95L262.99-41.72L262.99-41.72Q265.07-44.70 267.16-44.70L267.16-44.70L267.16-44.70Q268.80-44.70 268.80-43.06L268.80-43.06L268.35-41.57L268.35-41.57Q262.99-28.01 262.99-18.18L262.99-18.18L262.99-18.18Q262.99-10.28 266.49-5.29L266.49-5.29L266.49-5.29Q269.99-0.30 277.44-0.30L277.44-0.30L277.44-0.30Q288.61-0.30 295.47-10.06L295.47-10.06L295.47-10.06Q302.32-19.82 302.32-31.14L302.32-31.14L302.32-31.14Q302.32-40.83 295.69-58.78L295.69-58.78L295.69-58.78Q289.06-76.73 289.06-83.14L289.06-83.14L289.06-83.14Q289.06-97.00 300.91-105.42L300.91-105.42L300.91-105.42Q312.75-113.84 326.91-113.84L326.91-113.84L326.91-113.84Q329.44-113.84 331.90-113.54L331.90-113.54L331.90-113.54Q334.36-113.24 337.34-112.57L337.34-112.57L337.34-112.57Q340.32-111.90 342.10-110.41L342.10-110.41L342.10-110.41Q343.89-108.92 343.89-106.68L343.89-106.68L343.89-106.68Q343.89-103.70 339.72-96.55L339.72-96.55L339.72-96.55Q335.55-89.40 332.72-85.67L332.72-85.67L332.72-85.67Q331.67-84.93 330.93-84.93L330.93-84.93L330.93-84.93Q329.89-84.93 329.89-86.72L329.89-86.72L329.89-86.72Q329.89-90.89 330.78-98.04L330.78-98.04L330.78-98.04Q330.78-109.66 321.84-109.66L321.84-109.66L321.84-109.66Q314.24-109.66 308.95-104.45L308.95-104.45L308.95-104.45Q303.66-99.23 303.66-91.78L303.66-91.78L303.66-91.78Q303.66-81.95 310.59-64.37L310.59-64.37L310.59-64.37Q317.52-46.79 317.52-37.25L317.52-37.25L317.52-37.25Q317.52-19.37 303.44-7.82L303.44-7.82L303.44-7.82Q289.36 3.72 271.78 3.72L271.78 3.72L271.78 3.72Q268.80 3.72 264.62 3.13L264.62 3.13L264.62 3.13Q260.45 2.53 255.83 1.27L255.83 1.27L255.83 1.27Q251.21 0 248.01-2.46L248.01-2.46L248.01-2.46Q244.81-4.92 244.81-8.05L244.81-8.05L244.81-8.05Q244.81-9.24 245.25-10.28ZM375.63-39.04L375.63-39.04Q362.07-15.20 356.86-5.21L356.86-5.21L356.86-5.21Q351.64 4.77 339.57 4.77L339.57 4.77L339.57 4.77Q337.04 4.77 337.04 3.28L337.04 3.28L337.63 1.64L337.63 1.64Q343.00-6.56 348.88-16.84L348.88-16.84L348.88-16.84Q354.77-27.12 358.05-33.38L358.05-33.38L361.18-39.63L361.18-39.63Q365.94-48.87 369.22-70.10L369.22-70.10L369.22-70.10Q372.50-91.34 372.50-104.75L372.50-104.75L372.05-109.66L372.05-109.66Q371.75-110.26 371.75-111.00L371.75-111.00L371.75-111.00Q371.75-112.64 373.25-113.69L373.25-113.69L373.25-113.69Q377.27-116.37 383.53-116.37L383.53-116.37L383.53-116.37Q385.91-116.37 385.91-112.35L385.91-112.35L385.91-112.35Q384.87-87.76 378.46-54.53L378.46-54.53L378.46-54.53Q378.61-53.34 379.35-53.34L379.35-53.34L379.35-53.34Q379.80-53.34 380.40-53.94L380.40-53.94L380.40-53.94Q407.66-91.49 422.56-106.09L422.56-106.09L422.56-106.09Q434.93-118.01 447.45-118.01L447.45-118.01L447.45-118.01Q449.38-117.86 449.38-116.82L449.38-116.82L449.38-116.82Q449.38-116.37 448.19-115.10L448.19-115.10L448.19-115.10Q447-113.84 444.54-111.82L444.54-111.82L444.54-111.82Q442.08-109.81 439.85-108.02L439.85-108.02L439.85-108.02Q437.61-106.24 434.11-103.48L434.11-103.48L434.11-103.48Q430.61-100.72 428.67-99.23L428.67-99.23L428.67-99.23Q427.33-98.19 425.17-96.40L425.17-96.40L425.17-96.40Q423.01-94.61 416.45-88.43L416.45-88.43L416.45-88.43Q409.90-82.25 403.72-75.69L403.72-75.69L403.72-75.69Q397.53-69.14 389.63-59.08L389.63-59.08L389.63-59.08Q381.74-49.02 375.63-39.04L375.63-39.04ZM453.71-99.23L453.71-99.23L453.71-99.23Q450.58-99.23 445.06-94.76L445.06-94.76L445.06-94.76Q439.55-90.29 436.12-86.49L436.12-86.49L436.12-86.49Q432.70-82.69 432.10-81.80L432.10-81.80L432.10-81.80Q430.46-79.57 429.27-79.57L429.27-79.57L429.27-79.57Q428.23-79.57 428.23-81.20L428.23-81.20L428.23-81.20Q428.23-81.65 428.52-82.84L428.52-82.84L428.52-82.84Q431.95-93.13 442.90-103.48L442.90-103.48L442.90-103.48Q453.85-113.84 463.54-113.84L463.54-113.84L463.54-113.84Q472.18-113.84 472.18-100.57L472.18-100.57L472.18-100.57Q472.18-92.98 468.90-82.02L468.90-82.02L468.90-82.02Q465.63-71.07 463.39-65.93L463.39-65.93L463.39-65.93Q461.16-60.79 459.67-57.81L459.67-57.81L459.67-57.81Q455.64-49.91 450.73-42.09L450.73-42.09L450.73-42.09Q445.81-34.27 438.73-25.63L438.73-25.63L438.73-25.63Q431.65-16.99 424.13-10.50L424.13-10.50L424.13-10.50Q416.60-4.02 407.37 0.22L407.37 0.22L407.37 0.22Q398.13 4.47 389.19 4.47L389.19 4.47L389.19 4.47Q376.37 4.47 376.37-13.56L376.37-13.56L376.37-13.56Q376.37-28.31 382.19-43.73L382.19-43.73L382.19-43.73Q388.00-59.15 396.34-70.55L396.34-70.55L396.34-70.55Q404.68-81.95 413.55-90.00L413.55-90.00L413.55-90.00Q422.42-98.04 429.12-100.13L429.12-100.13L429.12-100.13Q429.87-100.43 431.06-100.43L431.06-100.43L431.06-100.43Q432.25-100.43 432.25-99.68L432.25-99.68L432.25-99.68Q432.25-98.79 431.06-97.45L431.06-97.45L431.06-97.45Q426.74-93.27 420.85-85.45L420.85-85.45L420.85-85.45Q414.97-77.63 408.04-66.45L408.04-66.45L408.04-66.45Q401.11-55.28 396.34-41.42L396.34-41.42L396.34-41.42Q391.57-27.56 391.57-15.35L391.57-15.35L391.57-15.35Q391.57-2.53 400.06-2.53L400.06-2.53L400.06-2.53Q418.09-2.53 439.55-39.78L439.55-39.78L439.55-39.78Q457.13-70.03 457.13-94.61L457.13-94.61L457.13-94.61Q457.13-99.23 453.71-99.23ZM499.60 14.30L499.60 14.30L499.60 14.30Q499.60 15.94 498.26 15.94L498.26 15.94L498.26 15.94Q497.66 15.94 496.47 15.35L496.47 15.35L496.47 15.35Q490.66 9.09 490.66-1.79L490.66-1.79L490.66-1.79Q490.66-10.43 494.31-21.16L494.31-21.16L494.31-21.16Q497.96-31.89 501.53-38.29L501.53-38.29L505.11-44.70L505.11-44.70Q505.41-45.15 505.41-45.74L505.41-45.74L505.41-45.74Q505.41-46.04 505.11-46.04L505.11-46.04L503.62-45.45L503.62-45.45Q490.51-28.46 479.04-16.84L479.04-16.84L479.04-16.84Q467.56-5.21 461.38-1.12L461.38-1.12L461.38-1.12Q455.19 2.98 452.21 2.98L452.21 2.98L452.21 2.98Q447.30 2.98 447.30-4.92L447.30-4.92L447.30-4.92Q447.30-15.20 453.85-31.36L453.85-31.36L453.85-31.36Q460.41-47.53 470.17-63.70L470.17-63.70L470.17-63.70Q479.93-79.86 485.59-88.51L485.59-88.51L485.59-88.51Q491.25-97.15 494.83-102.21L494.83-102.21L494.83-102.21Q498.26-106.83 502.43-109.29L502.43-109.29L502.43-109.29Q506.60-111.75 509.58-111.75L509.58-111.75L509.58-111.75Q511.81-111.75 511.81-110.41L511.81-110.41L511.81-110.41Q511.81-109.66 510.92-108.17L510.92-108.17L510.92-108.17Q509.28-104.60 502.28-93.87L502.28-93.87L502.28-93.87Q499.15-88.80 494.46-80.68L494.46-80.68L494.46-80.68Q489.76-72.56 480.30-53.34L480.30-53.34L480.30-53.34Q470.84-34.12 467.56-22.20L467.56-22.20L467.56-22.20Q467.26-20.86 467.26-19.52L467.26-19.52L467.26-19.52Q467.26-16.24 469.35-16.24L469.35-16.24L469.35-16.24Q470.99-16.24 474.56-18.92L474.56-18.92L474.56-18.92Q475.16-19.37 476.28-20.34L476.28-20.34L476.28-20.34Q477.40-21.31 481.64-25.63L481.64-25.63L481.64-25.63Q485.89-29.95 490.81-35.61L490.81-35.61L490.81-35.61Q495.72-41.27 503.92-51.85L503.92-51.85L503.92-51.85Q512.11-62.43 521.05-75.10L521.05-75.10L521.05-75.10Q537.14-101.62 544.15-108.02L544.15-108.02L544.15-108.02Q548.17-111.75 554.58-111.75L554.58-111.75L554.58-111.75Q557.11-111.75 557.11-110.41L557.11-110.41L557.11-110.41Q557.11-109.22 556.22-107.73L556.22-107.73L556.22-107.73Q552.19-100.57 548.32-95.21L548.32-95.21L548.32-95.21Q545.19-90.44 540.27-82.47L540.27-82.47L540.27-82.47Q535.36-74.50 524.41-54.53L524.41-54.53L524.41-54.53Q513.45-34.57 507.49-19.97L507.49-19.97L507.49-19.97Q499.15-1.04 499.15 9.83L499.15 9.83L499.15 9.83Q499.15 10.88 499.37 12.44L499.37 12.44L499.37 12.44Q499.60 14.01 499.60 14.30Z" fill="#444"></path></g></g><style>text {
  font-size: 64px;
  font-family: Arial Black;
  dominant-baseline: central;
  text-anchor: middle;
}</style></svg>