<?xml version="1.0" standalone="no"?>
<!DOCTYPE svg PUBLIC "-//W3C//DTD SVG 20010904//EN"
 "http://www.w3.org/TR/2001/REC-SVG-20010904/DTD/svg10.dtd">
<svg version="1.0" xmlns="http://www.w3.org/2000/svg"
 width="380.000000pt" height="382.000000pt" viewBox="0 0 380.000000 382.000000"
 preserveAspectRatio="xMidYMid meet">

<g transform="translate(0.000000,382.000000) scale(0.100000,-0.100000)"
fill="#000000" stroke="none">
<path d="M501 2208 c-5 -13 -18 -47 -30 -76 -29 -73 -26 -75 12 -12 45 76 93
100 204 100 l82 0 -158 -242 -157 -243 184 -3 c102 -1 187 -1 189 2 5 5 43
146 43 160 0 6 -12 -14 -26 -42 -14 -29 -42 -65 -62 -80 -32 -24 -45 -27 -134
-30 -54 -2 -98 -1 -98 2 0 3 68 111 150 241 83 130 150 238 150 241 0 2 -77 4
-170 4 -168 0 -171 0 -179 -22z"/>
<path d="M1058 2223 c28 -6 64 -60 59 -90 -2 -12 0 -21 6 -20 7 2 97 -193 97
-210 0 -2 -45 -3 -100 -1 -55 2 -100 0 -100 -4 0 -5 47 -8 104 -8 l104 0 22
-54 c26 -65 24 -88 -10 -97 -14 -4 20 -7 75 -7 61 -1 92 2 80 7 -36 15 -52 44
-146 269 l-93 222 -60 -1 c-34 -1 -51 -4 -38 -6z"/>
<path d="M2800 2221 l25 -7 3 -232 2 -233 -22 -9 c-17 -6 1 -9 62 -8 47 0 76
3 65 5 -31 8 -35 21 -35 136 l0 107 34 0 c33 0 39 -6 107 -105 89 -131 106
-145 173 -144 45 0 48 2 25 10 -17 7 -51 45 -94 109 -64 93 -70 99 -97 93 -20
-4 -35 0 -49 13 -20 18 -19 18 53 31 92 15 128 48 128 117 0 62 -34 101 -101
115 -54 12 -320 14 -279 2z m261 -16 c72 -38 64 -177 -12 -204 -18 -6 -58 -11
-90 -11 l-59 0 0 115 0 115 65 0 c40 0 78 -6 96 -15z"/>
<path d="M1477 2035 c-22 -47 -21 -53 3 -23 28 36 68 50 133 46 l57 -3 -100
-158 c-55 -87 -100 -160 -100 -163 0 -2 60 -4 133 -4 l134 0 12 41 c7 23 15
48 18 58 3 9 -4 2 -15 -15 -38 -58 -68 -74 -143 -74 l-69 0 105 165 104 165
-128 0 -127 0 -17 -35z"/>
<path d="M1840 2030 c-27 -54 -25 -56 14 -13 32 35 38 37 106 41 85 5 84 10
16 -96 -25 -40 -68 -108 -96 -152 l-50 -80 134 0 134 0 16 47 c21 62 20 64 -8
23 -33 -50 -61 -62 -134 -58 l-63 3 91 145 c51 80 96 153 101 163 9 16 1 17
-115 17 l-126 0 -20 -40z"/>
<path d="M2197 2060 c14 -6 47 -59 98 -159 43 -83 81 -151 85 -151 4 0 14 18
23 40 8 22 12 40 7 40 -8 0 -120 206 -120 221 0 4 10 10 23 12 12 2 -14 5 -58
5 -55 1 -73 -2 -58 -8z"/>
<path d="M2480 2063 c8 -3 17 -9 20 -13 3 -3 16 0 30 7 24 12 23 13 -20 12
-25 0 -38 -3 -30 -6z"/>
<path d="M3326 1784 c-19 -19 -20 -25 -3 -48 18 -25 57 -13 57 18 0 21 -17 46
-31 46 -4 0 -15 -7 -23 -16z"/>
<path d="M962 1770 c-7 -12 -23 -25 -35 -30 -17 -7 -10 -9 33 -9 52 -1 53 0
33 14 -13 9 -20 22 -17 30 9 21 1 18 -14 -5z"/>
<path d="M2324 1654 c-25 -28 -38 -34 -70 -34 -22 0 -50 7 -63 16 -23 16 -23
16 -16 -7 8 -30 41 -59 66 -59 46 0 86 35 109 95 12 31 12 31 -26 -11z"/>
</g>
</svg>
